<svg xmlns="http://www.w3.org/2000/svg" width="58.209" height="58.21"><path d="M57.508 29.046l-2.944-1.186a1.1 1.1 0 00-1.159.2l-2.833-1.133a1.115 1.115 0 00-1.389.492 2.354 2.354 0 01-.368-.422 11.04 11.04 0 00-.693-1.659l1.628.132a1.839 1.839 0 001.516-.626 3.044 3.044 0 00.561-2.572q-.321-1.8-.674-3.594a3.442 3.442 0 00-1.347-2.271 1.74 1.74 0 00-1.363-.234h-.018c-.466.125-1 .271-1.6.435a.974.974 0 01-.409-.487q-.626-1.408-1.287-2.8a.975.975 0 01-.1-.677l1.57-1.114a2.063 2.063 0 00.8-1.373 3.539 3.539 0 00-.711-2.561 37.647 37.647 0 00-2.5-2.993 3.02 3.02 0 00-2.384-1.014 2.237 2.237 0 00-1.707.945l-1.225 1.793a.767.767 0 01-.722-.043q-1.426-.657-2.884-1.23a.874.874 0 01-.486-.38l.508-1.972a1.97 1.97 0 00-.4-1.744 2.943 2.943 0 00-2.433-.954c-1.2.049-2.463.139-3.755.268-1.727.2-2.911 1.207-2.812 2.424l.159 1.612a1 1 0 01-.553.331q-1.466.4-2.928.825a1.011 1.011 0 01-.643.006l-.715-1.475c-.542-1.072-2.079-1.317-3.667-.576q-1.686.809-3.32 1.719a2.947 2.947 0 00-1.597 2.089 1.98 1.98 0 00.571 1.705l1.445 1.395a.77.77 0 01-.2.6q-.946 1.246-1.816 2.551c-.239.357-.536.438-.6.412l-1.989-.889a2.238 2.238 0 00-1.944.088 3.02 3.02 0 00-1.5 2.1 37.087 37.087 0 00-.57 3.877 3.534 3.534 0 00.731 2.542 2.067 2.067 0 001.414.752l1.88.124a.859.859 0 01.3.638c.077.724.166 1.476.26 2.236q-2.7 2.505-5.4 5a6.513 6.513 0 00-1.95 4.408 2.377 2.377 0 01-.751 1.6l-.408.375a.111.111 0 00-.015.01L.363 38.327a1.119 1.119 0 00-.363.824V57.09a1.12 1.12 0 001.124 1.119h.945a1.12 1.12 0 00.769-.306l7.054-6.676a1.116 1.116 0 00.3-1.119l2.249-2.066a1.116 1.116 0 00.155-1.464 2.356 2.356 0 01.54-.15 9.965 9.965 0 006.469-1.254c.136-.089.3-.2.494-.335.322.118.64.244.966.352v11.9a1.12 1.12 0 001.119 1.119h13.715a1.12 1.12 0 001.119-1.119v-7.283a1.116 1.116 0 00-.62-1v-3.054a1.116 1.116 0 00-.974-1.1 2.378 2.378 0 01.2-.4l1.21-.341a3.25 3.25 0 002.13-1.565 1.756 1.756 0 00.154-.9 7.06 7.06 0 003.436-.5 2.372 2.372 0 011.768-.011l.53.213.643.259 1.237.5 1.889.76 8.003 3.618a1.117 1.117 0 001.581-1.02V30.085a1.122 1.122 0 00-.7-1.038zM43.46 38.527a4.728 4.728 0 00-1.733.333 4.6 4.6 0 01-2.726.285q.082-.319.134-.645c.057-.354.129-.887.206-1.493.057-.461.117-.961.174-1.461.153-1.343.282-2.65.288-3.026v-.023a2.8 2.8 0 00-.324-1.327 3.545 3.545 0 00-.712-.924 6 6 0 00-.943-.71 2.878 2.878 0 00-1.047-.38 4.089 4.089 0 00-.9-.061v-1.512a1.111 1.111 0 000-1.9v-1.698l.68.274 1.067.428 1.057.425 1.063.428a1.12 1.12 0 001.18-.223 1.12 1.12 0 00-.345-1.853l-1.7-.682-1.143-.46-.734-.3a1.459 1.459 0 01.361-.661c.073-.052.134-.087.2-.131.473-.313.808-.425 1.066-.354a.516.516 0 01.066.011c.214.087 1.273.64 2.4 1.247a114.875 114.875 0 012.273 1.26c.134.078.26.152.363.214a5.947 5.947 0 011.695 1.607 8.712 8.712 0 01.832 1.413 8.236 8.236 0 01.445 1.13 1.147 1.147 0 00.127.294c.061.1.127.182.191.272a4.606 4.606 0 001.281 1.226l-.238.594-.418 1.039-.414 1.044-1.755 4.36-.518 1.288-.327.814a4.489 4.489 0 00-1.028-.15c-.048 0-.1-.009-.144-.009zm-25.082 4.779a5.183 5.183 0 01-.883.46 8.5 8.5 0 01-4.142.434 1.12 1.12 0 00-.32-.012 4.6 4.6 0 00-1.986.683l-6.658-7.252a4.631 4.631 0 001.092-2.7 4.335 4.335 0 011.23-2.914q1.1-1.014 2.2-2.032c1.2-1.109 2.655-2.46 4.033-3.738l1.95-1.808 1.059-.983 1.144-1.062.506-.47a.764.764 0 01.562-.206.774.774 0 01.539.25.815.815 0 01.213.583c0 .017 0 .041-.006.062a3.04 3.04 0 00-.277.518l-1.473 1.358-1.005.924-.963.884-2.936 2.7a1.12 1.12 0 001.514 1.642l2.181-2 .88-.808.9-.829.68-.624.011 2.142-.048.043-.85.782-.852.783-.979.9a1.12 1.12 0 101.514 1.649l.73-.671.5-.457v2.117a1.115 1.115 0 00.006 1.483v.517c.006 1.289.009 2.393.01 3.116l-.11.1a1.12 1.12 0 00-.067 1.582c.008.009.017.015.026.023a1.088 1.088 0 00.4.261 6.387 6.387 0 00.839 1.751q-.583.415-1.176.815zm-12.3 8.453l-3.837 3.627v-5.3c.035.029.069.059.106.086a1.03 1.03 0 00.191.1.963.963 0 00.206.062 1.023 1.023 0 00.224.022.964.964 0 00.218-.022.986.986 0 00.208-.062 1.293 1.293 0 00.2-.1 1.389 1.389 0 00.168-.14 1.054 1.054 0 00.14-.173.983.983 0 00.1-.19c.017-.041.028-.087.041-.131.008-.028.02-.054.026-.082a1.075 1.075 0 000-.436 1.584 1.584 0 00-.067-.207 1.013 1.013 0 00-.241-.364 1.142 1.142 0 00-.987-.294 1.113 1.113 0 00-.529.24v-3.817l5.312 5.787-.661.624-.815.769zm4.029-4.6l-.221.2-.446.41-.666.612-6.533-7.114v-1.623l.526-.482 7.334 7.987.007.008zm2.463-24.264a2.743 2.743 0 00-2.34-2.633l-1.791-.122a1.408 1.408 0 01-.187-.871 35.183 35.183 0 01.531-3.642.909.909 0 01.343-.58l1.979.884a2.78 2.78 0 003.374-1.21q.838-1.253 1.746-2.457a2.653 2.653 0 00-.015-3.531l-1.326-1.285a1.119 1.119 0 01.409-.352q1.574-.876 3.2-1.656a2.094 2.094 0 01.819-.214l.614 1.269A2.674 2.674 0 0023.19 7.61c.958-.28 1.921-.551 2.881-.811a2.673 2.673 0 002.2-2.649l-.139-1.41a2.062 2.062 0 01.8-.243q1.806-.183 3.62-.258a1.078 1.078 0 01.519.086l-.459 1.784a2.654 2.654 0 001.83 3.025q1.4.553 2.771 1.184a2.781 2.781 0 003.508-.728l1.047-1.525.15-.236a.726.726 0 01.631.29 35.261 35.261 0 012.342 2.808 1.422 1.422 0 01.3.852l-1.46 1.036a2.743 2.743 0 00-.628 3.469q.648 1.363 1.261 2.742a2.659 2.659 0 002.988 1.755l1.345-.366a2.145 2.145 0 01.257.691c.228 1.164.453 2.349.668 3.56a1.506 1.506 0 01.01.54l-1.622-.132a2.14 2.14 0 00-1.21.266 7.867 7.867 0 00-1.905-1.649q-.851-.5-1.72-.977a14.35 14.35 0 00-.336-1.5 14.279 14.279 0 00-27.91 2.122l-2.3 2.134c-.018-.189-.043-.388-.062-.578zm10.74 30.062v-2.03h11.469v5.044H23.306zm10.852-5.773v1.507H23.306v-1.817h10.853v.308zm-2.174-27.18a3 3 0 00-5.2-1.228 2.988 2.988 0 00-1.517-.41 3.036 3.036 0 00-2.851 2 2.921 2.921 0 00-.389.094 7.548 7.548 0 0113.836-.745 3.4 3.4 0 00-.848 1.242 2.935 2.935 0 00-2.753-.843l-.279-.112zm1.908-5.459a9.79 9.79 0 00-14.082 5.447 2.914 2.914 0 00-2.2-.471 12.129 12.129 0 01.994-2.316 12.019 12.019 0 0121.9 2.084 16.64 16.64 0 00-.963-.473 2.838 2.838 0 00-1.695-.142 9.728 9.728 0 00-3.957-4.13zm-.782 30.09h-9.846a4.618 4.618 0 00-.539-1.656l-.01-.017a4.749 4.749 0 00-.656-.906c-.015-.016-.027-.034-.043-.05a5.8 5.8 0 01-.654-.828 4.055 4.055 0 01-.6-1.475 3.208 3.208 0 01-.057-.574v-2.407l-.009-2.1-.006-1.422v-.09l-.007-1.433v-.08l-.01-2.1-.007-1.434v-.085l-.008-1.514q0-1.07-.012-2.14v-.041a.78.78 0 01.778-.782.881.881 0 01.106.01h.036a.8.8 0 01.169.048.793.793 0 01.5.719v8.716a1.122 1.122 0 001.335 1.1.884.884 0 00.087-.025 1.088 1.088 0 00.286-.124 1.116 1.116 0 00.48-.634c0-.015.01-.03.014-.046a1.1 1.1 0 00.036-.268V21.379a.754.754 0 01.166-.46.811.811 0 01.636-.315.726.726 0 01.13.013.781.781 0 01.647.768v10.452a1.1 1.1 0 00.155.557c.01.017.017.035.028.052a1.127 1.127 0 00.383.359 1.11 1.11 0 00.554.152 1.108 1.108 0 00.31-.049 1.141 1.141 0 00.81-1.07V20.744a.778.778 0 011.555 0v10.731a1.128 1.128 0 001.119 1.119 1.129 1.129 0 001.119-1.119v-8.407a.781.781 0 01.207-.528.771.771 0 01.57-.255.781.781 0 01.778.782v12.125a1.1 1.1 0 00.017.175c0 .017 0 .036.006.053a1.115 1.115 0 002.076.3 1.106 1.106 0 00.139-.53v-3.851a1.457 1.457 0 01.742.088 3.741 3.741 0 01.644.49.815.815 0 01.294.57c0 .1-.021.358-.055.715q-.194 2.014-.454 4.022-.062.476-.136.951c-.009.054-.024.106-.034.159a5.513 5.513 0 01-.332 1.073 6.824 6.824 0 01-.527.995 9.152 9.152 0 01-1.578 1.851 6.26 6.26 0 01-.27.229 1.144 1.144 0 00-.226.228 4.707 4.707 0 00-.571 1.006 4.833 4.833 0 00-.268.92zm17.66-15.216l.281.113.561.226.841.338-4.049 10.069-.843-.339-.841-.339.637-1.583 1.676-4.166.076-.19.847-2.106.81-2.012.006-.01zm-.306 11.623l4.3-10.687.843.34.361.145v3.047a1.2 1.2 0 00-.436-.008 1.068 1.068 0 00-.594.3.979.979 0 00-.241.364 1.278 1.278 0 00-.067.207 1.443 1.443 0 00-.023.218 1.129 1.129 0 00.222.661 1.05 1.05 0 00.109.133 1.129 1.129 0 00.789.325 1.115 1.115 0 00.241-.028v7.475l-3.655-1.654-1.023-.463-.826-.375zM31.963 53.327a1.349 1.349 0 01.017.218 1.117 1.117 0 01-1.909.794 2.215 2.215 0 01-.14-.173 1.3 1.3 0 01-.1-.19 1.342 1.342 0 01-.067-.213 1.075 1.075 0 010-.436 1.278 1.278 0 01.15-.369c.006-.01.01-.023.017-.034a1.39 1.39 0 01.14-.168 1.315 1.315 0 01.169-.14 2.09 2.09 0 01.2-.106c.067-.022.14-.045.208-.062a1.145 1.145 0 01.436 0c.073.017.145.04.213.062a1.582 1.582 0 01.19.106 1.054 1.054 0 01.173.14 1.39 1.39 0 01.14.168c.007.01.011.022.017.034a1.32 1.32 0 01.084.162 1.129 1.129 0 01.062.207z" fill="#7be73c"/></svg>