<svg width="56" height="56" fill="none" xmlns="http://www.w3.org/2000/svg"><path d="M41.455 0h-26.91C6.513 0 0 6.512 0 14.546v26.909C0 49.488 6.512 56 14.546 56h26.909C49.488 56 56 49.488 56 41.455v-26.91C56 6.513 49.488 0 41.455 0z" fill="#7BE73C"/><path d="M39.43 16.263a16.29 16.29 0 00-25.633 19.654l-2.31 8.436 8.634-2.267a16.237 16.237 0 007.782 1.982h.007A16.443 16.443 0 0044.352 27.78a16.351 16.351 0 00-4.922-11.518zm-11.518 25.06a13.5 13.5 0 01-6.898-1.885l-.492-.291-5.118 1.34 1.364-4.995-.322-.514a13.565 13.565 0 0114.03-20.38 13.563 13.563 0 0111.125 13.18 13.687 13.687 0 01-13.69 13.546zm7.425-10.138c-.404-.205-2.407-1.189-2.78-1.321-.375-.132-.647-.205-.918.205s-1.049 1.32-1.29 1.6c-.243.28-.478.308-.88.103-2.392-1.196-3.962-2.135-5.54-4.843-.418-.719.418-.667 1.196-2.222a.753.753 0 00-.037-.711c-.102-.205-.917-2.208-1.254-3.023-.33-.792-.668-.682-.917-.697-.235-.014-.51-.014-.778-.014a1.51 1.51 0 00-1.085.509 4.573 4.573 0 00-1.424 3.396c0 2.003 1.46 3.94 1.659 4.211.198.271 2.868 4.38 6.954 6.148 2.583 1.115 3.595 1.21 4.886 1.018.785-.117 2.407-.983 2.744-1.937a3.4 3.4 0 00.234-1.938c-.096-.183-.368-.286-.77-.484z" fill="#fff"/></svg>