<svg xmlns="http://www.w3.org/2000/svg" width="44.52" height="44.51"><path d="M22.265 10.843a11.412 11.412 0 1011.411 11.412 11.394 11.394 0 00-11.411-11.412zm0 18.831a7.419 7.419 0 117.419-7.419 7.433 7.433 0 01-7.419 7.419zm14.54-19.3a2.662 2.662 0 11-2.662-2.662 2.656 2.656 0 012.662 2.664zm7.558 2.7c-.169-3.566-.983-6.724-3.6-9.326S35.005.335 31.442.156c-3.675-.209-14.689-.209-18.364 0-3.556.169-6.714.983-9.326 3.585S.335 9.502.156 13.068c-.208 3.674-.208 14.694 0 18.364.169 3.566.983 6.724 3.6 9.326s5.761 3.417 9.326 3.6c3.675.209 14.689.209 18.364 0 3.566-.169 6.724-.983 9.326-3.6s3.417-5.761 3.6-9.326c.209-3.675.209-14.679 0-18.354zm-4.747 22.3a7.511 7.511 0 01-4.231 4.231c-2.93 1.162-9.882.894-13.12.894s-10.2.263-13.12-.893a7.511 7.511 0 01-4.231-4.231c-1.162-2.93-.894-9.882-.894-13.12s-.258-10.2.894-13.12a7.511 7.511 0 014.231-4.231c2.93-1.162 9.882-.894 13.12-.894s10.2-.258 13.12.894a7.511 7.511 0 014.231 4.231c1.162 2.93.894 9.882.894 13.12s.268 10.2-.894 13.12z"/></svg>