<svg xmlns="http://www.w3.org/2000/svg" width="71.344" height="68.784"><path d="M10.701 11.8l2.282 4.718 5.177.7a1.225 1.225 0 01.689 2.083l-3.783 3.637.934 5.147a1.215 1.215 0 01-1.777 1.287l-4.61-2.481-4.61 2.481a1.216 1.216 0 01-1.761-1.363l.919-5.085-3.783-3.63a1.225 1.225 0 01.7-2.1l5.162-.7 2.282-4.718a1.207 1.207 0 012.175.031zm.368 6.372l-1.456-3.034-1.47 3.033a1.254 1.254 0 01-.934.689l-3.324.444 2.435 2.334a1.224 1.224 0 01.352 1.088l-.6 3.308 2.941-1.578a1.209 1.209 0 011.164 0l2.956 1.593-.575-3.251a1.247 1.247 0 01.337-1.164l2.435-2.328-3.293-.444a1.25 1.25 0 01-.969-.69zM36.769.695l2.282 4.718 5.193.7a1.236 1.236 0 01.689 2.1l-3.783 3.63.934 5.147a1.215 1.215 0 01-1.777 1.287l-4.64-2.479-4.609 2.482a1.216 1.216 0 01-1.761-1.363l.919-5.085-3.8-3.63a1.225 1.225 0 01.7-2.1l5.162-.7 2.282-4.7a1.222 1.222 0 012.206 0zm.368 6.372l-1.47-3.029-1.455 3.033a1.254 1.254 0 01-.934.689l-3.339.444 2.435 2.328a1.184 1.184 0 01.352 1.088l-.6 3.309 2.956-1.578a1.209 1.209 0 011.164 0l2.96 1.587-.582-3.247a1.247 1.247 0 01.337-1.164l2.435-2.328-3.293-.46a1.177 1.177 0 01-.965-.672zM62.824 11.8l2.282 4.718 5.177.7a1.221 1.221 0 01.689 2.083l-3.782 3.637.934 5.147a1.215 1.215 0 01-1.777 1.287l-4.61-2.481-4.61 2.481a1.227 1.227 0 01-1.777-1.363l.919-5.085-3.783-3.63a1.225 1.225 0 01.7-2.1l5.162-.7 2.282-4.718a1.219 1.219 0 012.19.031zm.368 6.372l-1.455-3.034-1.47 3.033a1.228 1.228 0 01-.934.689l-3.324.444 2.42 2.328a1.224 1.224 0 01.352 1.088l-.6 3.308 2.956-1.578a1.209 1.209 0 011.164 0l2.972 1.593-.582-3.247a1.247 1.247 0 01.337-1.164l2.42-2.328-3.29-.442a1.25 1.25 0 01-.966-.69zM29.985 43.078a1.222 1.222 0 112.114-1.225l1.608 2.785 5.713-5.713a1.224 1.224 0 111.731 1.731l-6.847 6.847a1.218 1.218 0 01-1.915-.245zm5.682-12.94a12.07 12.07 0 11-12.07 12.07 12.074 12.074 0 0112.07-12.07zm6.8 5.269a9.618 9.618 0 100 13.6 9.624 9.624 0 00.001-13.603zm-6.8-12.851a19.642 19.642 0 0116.221 30.708l5.87 10.155a1.226 1.226 0 01-1.225 1.869l-6-.95-3.217 3.952a1.217 1.217 0 01-2.037-.123l-4.1-7.107a19.744 19.744 0 01-11 0l-4.1 7.107a1.217 1.217 0 01-2.037.123l-3.232-3.952-6 .95a1.233 1.233 0 01-1.256-1.823l5.9-10.2a19.64 19.64 0 0116.213-30.712zm14.6 32.779a19.584 19.584 0 01-6.77 4.886l3 5.193 2.573-3.155a1.191 1.191 0 011.164-.429l4.136.659zm-22.442 4.883a19.83 19.83 0 01-6.755-4.871l-4.12 7.138 4.136-.659a1.236 1.236 0 011.164.429l2.573 3.155zm20-30.175a17.189 17.189 0 100 24.308 17.2 17.2 0 00.004-24.308z" fill="#7be73c"/></svg>