<svg xmlns="http://www.w3.org/2000/svg" width="158.333" height="70.667"><g data-name="Grupo 7397"><g data-name="Grupo 7383"><path data-name="Caminho 7134" d="M58.329 68.274l-.142.661c-.126.567-.236 1.134-.362 1.7h-3.479c.11-.567.236-1.134.362-1.7l.236-1.086c.173-.834.346-1.669.535-2.5.173-.834.346-1.669.535-2.5h9.824a.923.923 0 01.929 1.165c-.11.5-.22 1.023-.315 1.527-.11.5-.22 1.023-.331 1.527a1.527 1.527 0 01-1.433 1.165h-4.692c-.581.041-1.116.041-1.667.041zm4.471-2.078c.094-.425.173-.834.268-1.259a.237.237 0 00-.236-.3h-3.731c-.126.614-.268 1.244-.394 1.858h3.731a.4.4 0 00.362-.3z"/><path data-name="Caminho 7135" d="M77.883 68.368a210.222 210.222 0 01-1.748-2c-.157.708-.3 1.417-.457 2.141-.157.708-.3 1.417-.457 2.141h-3.478c.268-1.291.551-2.6.819-3.889s.551-2.6.819-3.889h3.086a.9.9 0 01.693.283l1.747 1.984 1.747 1.984c.157-.708.3-1.417.457-2.141.157-.708.3-1.417.457-2.141h3.475c-.268 1.291-.551 2.6-.819 3.889s-.551 2.6-.819 3.889h-3.1a.891.891 0 01-.677-.283c-.58-.646-1.162-1.307-1.745-1.968z"/><path data-name="Caminho 7136" d="M90.068 69.47l.142-.661c.173-.8.346-1.59.5-2.393.173-.8.346-1.59.5-2.393a1.5 1.5 0 01.5-.819 1.419 1.419 0 01.913-.362h9.509a7.16 7.16 0 01-.126.6c-.047.236-.094.488-.157.724a.572.572 0 01-.551.441h-6.439a.393.393 0 00-.346.236.119.119 0 00-.031.063c-.063.315-.126.614-.189.929h6.2c-.047.2-.094.409-.126.6-.063.236-.11.488-.157.724a.555.555 0 01-.535.441h-5.762c-.063.315-.126.614-.189.929v.063a.246.246 0 00.252.236h6.9c-.047.2-.094.409-.126.6-.047.236-.094.488-.157.724a.587.587 0 01-.535.441h-9.037a.872.872 0 01-.953-1.123z"/><path data-name="Caminho 7137" d="M108.111 64.999c.157-.708.3-1.433.457-2.141h3.479c-.157.708-.315 1.433-.457 2.141-.157.708-.3 1.433-.457 2.141-.047.22-.094.457-.142.677-.063.252-.11.488-.157.74a.231.231 0 00.236.3h4.093a.4.4 0 00.362-.3c.031-.157.063-.331.11-.488.063-.315.126-.614.189-.929.157-.708.315-1.433.457-2.141.157-.708.3-1.433.457-2.141h3.5c-.157.708-.3 1.433-.457 2.141s-.315 1.433-.457 2.141c-.063.315-.126.614-.189.929-.094.457-.2.929-.3 1.385a1.539 1.539 0 01-1.417 1.181h-9.3a.93.93 0 01-.929-1.181c.11-.551.236-1.086.346-1.637.047-.22.094-.457.142-.677.135-.708.276-1.417.434-2.141z"/><path data-name="Caminho 7138" d="M125.428 70.651h-.331c.031-.2.079-.409.126-.6.047-.236.11-.488.157-.724a.587.587 0 01.535-.441h6.549a.422.422 0 00.378-.3c.047-.2.094-.409.126-.63a.239.239 0 00-.22-.3h-5.809a.923.923 0 01-.929-1.165c.094-.409.173-.819.252-1.212.079-.409.173-.819.268-1.212a1.539 1.539 0 011.417-1.181h9.588c-.047.2-.094.409-.126.6-.047.236-.094.488-.157.724a.569.569 0 01-.535.441h-6.549a.4.4 0 00-.362.3c-.047.2-.094.409-.126.63a.239.239 0 00.22.3h5.809a.931.931 0 01.929 1.181c-.079.409-.173.819-.252 1.212-.079.409-.173.819-.252 1.212a1.539 1.539 0 01-1.417 1.181h-8.407c-.331-.016-.613-.016-.882-.016z"/></g><g data-name="Grupo 7396"><g data-name="Grupo 7386"><g data-name="Grupo 7384"><path data-name="Caminho 7139" d="M22.477 66.758h-3.9l.787-3.9h3.9z" fill="#7be73c"/></g><g data-name="Grupo 7385"><path data-name="Caminho 7140" d="M25.578 70.647h-3.9l.787-3.9h3.9z" fill="#7be73c"/></g></g><g data-name="Grupo 7389"><g data-name="Grupo 7387"><path data-name="Caminho 7141" d="M30.165 66.758h-3.889l.787-3.9h3.889z" fill="#7be73c"/></g><g data-name="Grupo 7388"><path data-name="Caminho 7142" d="M33.266 70.647h-3.889l.787-3.9h3.889z" fill="#7be73c"/></g></g><g data-name="Grupo 7392"><g data-name="Grupo 7390"><path data-name="Caminho 7143" d="M37.858 66.758h-3.9l.787-3.9h3.9z" fill="#7be73c"/></g><g data-name="Grupo 7391"><path data-name="Caminho 7144" d="M40.948 70.647h-3.889l.787-3.9h3.9z" fill="#7be73c"/></g></g><g data-name="Grupo 7395"><g data-name="Grupo 7393"><path data-name="Caminho 7145" d="M45.541 66.758h-3.9l.787-3.9h3.9z" fill="#7be73c"/></g><g data-name="Grupo 7394"><path data-name="Caminho 7146" d="M48.642 70.647h-3.9l.787-3.9h3.9z" fill="#7be73c"/></g></g></g></g><g data-name="Grupo 7428"><g data-name="Grupo 7398" fill="#7be73c"><path data-name="Caminho 7147" d="M.929 56.497H0c.11-.677.22-1.354.346-2.031.142-.819.3-1.637.441-2.456a1.731 1.731 0 011.5-1.5h18.164a1.166 1.166 0 001.023-1.023c.126-.693.252-1.4.362-2.094a.785.785 0 00-.614-1.008h-16.2c-1.795 0-2.976-1.779-2.582-3.952.236-1.37.488-2.739.708-4.093.236-1.37.488-2.739.74-4.109.378-2.173 2.173-3.952 3.967-3.952h26.686c-.126.677-.252 1.354-.362 2.031-.142.819-.283 1.637-.441 2.456a1.731 1.731 0 01-1.48 1.5H14.075a1.166 1.166 0 00-1.008 1.023c-.126.693-.252 1.4-.362 2.094-.094.535.173.976.614 1.008h16.2c1.795 0 2.944 1.779 2.566 3.952-.236 1.37-.472 2.739-.708 4.093l-.708 4.093c-.394 2.173-2.173 3.952-3.952 3.952H3.306c-.834.016-1.621.016-2.377.016z"/><path data-name="Caminho 7148" d="M33.895 53.727c.378-2.141.756-4.282 1.118-6.423.378-2.141.756-4.282 1.118-6.423a3.211 3.211 0 012.787-2.771h18.2c1.259 0 2.062 1.244 1.811 2.771a898.835 898.835 0 00-1.118 6.423 898.835 898.835 0 00-1.118 6.423 3.2 3.2 0 01-2.771 2.771H35.737c-1.274 0-2.109-1.26-1.842-2.771zm7.651-1.433h7.982a.817.817 0 00.708-.708c.252-1.433.5-2.85.756-4.282s.5-2.85.756-4.282c.063-.394-.126-.708-.457-.708h-7.982a.849.849 0 00-.708.708c-.252 1.433-.5 2.85-.756 4.282s-.5 2.85-.756 4.282c-.078.393.111.708.458.708z"/><path data-name="Caminho 7149" d="M60.659 43.178c.3-1.685.583-3.369.9-5.069h6.8l-.9 5.069c-.3 1.684-.583 3.369-.882 5.069l-.283 1.606c-.11.583-.2 1.165-.3 1.732-.063.394.142.708.472.708h7.982a.831.831 0 00.708-.708c.079-.378.142-.771.2-1.149l.378-2.188c.3-1.685.6-3.369.9-5.069.3-1.685.583-3.369.882-5.069h6.833l-.9 5.069c-.3 1.684-.6 3.369-.9 5.069l-.378 2.188c-.189 1.1-.394 2.188-.583 3.29a3.211 3.211 0 01-2.787 2.771H60.628c-1.26 0-2.078-1.244-1.811-2.771.236-1.291.457-2.582.693-3.873.079-.535.189-1.071.283-1.606.284-1.699.567-3.384.866-5.069z"/><path data-name="Caminho 7150" d="M84.354 56.498h-.646c.079-.472.157-.945.252-1.433.094-.567.2-1.149.3-1.716a1.215 1.215 0 011.055-1.055h12.737a.831.831 0 00.724-.708c.094-.488.173-.976.252-1.464a.564.564 0 00-.425-.708H87.25c-1.259 0-2.078-1.244-1.81-2.771.173-.96.331-1.921.5-2.881l.52-2.881a3.211 3.211 0 012.787-2.771h18.688c-.079.472-.173.945-.252 1.433a51.873 51.873 0 01-.3 1.716 1.215 1.215 0 01-1.039 1.055H93.608a.815.815 0 00-.708.708c-.094.488-.173.976-.252 1.464a.554.554 0 00.425.708h11.351c1.26 0 2.062 1.244 1.795 2.771-.173.96-.331 1.921-.5 2.881-.157.96-.331 1.921-.5 2.881a3.211 3.211 0 01-2.771 2.771H84.354z"/><path data-name="Caminho 7151" d="M112.015 56.498h-7.242c2.314-3.07 4.629-6.124 6.927-9.194 2.314-3.07 4.629-6.124 6.927-9.194h4.172a1.332 1.332 0 011.275.882v.016q1.748 4.369 3.526 8.738c1.181 2.913 2.346 5.825 3.527 8.738h-7.762c-.252-.583-.472-1.165-.708-1.748h-8.848q-.638.874-1.323 1.748a4.578 4.578 0 01-.471.014zm8.974-5.951a307.713 307.713 0 01-1.385-3.432 258.422 258.422 0 00-2.6 3.432z"/><path data-name="Caminho 7152" d="M133.316 56.498h-.645c.079-.472.157-.945.252-1.433.094-.567.2-1.149.3-1.716a1.215 1.215 0 011.055-1.055h12.737a.831.831 0 00.724-.708c.094-.488.173-.976.252-1.464a.564.564 0 00-.425-.708h-11.353c-1.26 0-2.078-1.244-1.811-2.771.173-.96.331-1.921.5-2.881l.52-2.881a3.211 3.211 0 012.787-2.771h18.688c-.079.472-.173.945-.252 1.433a51.873 51.873 0 01-.3 1.716 1.215 1.215 0 01-1.039 1.055h-12.735a.815.815 0 00-.708.708c-.094.488-.173.976-.252 1.464a.554.554 0 00.425.708h11.351c1.259 0 2.062 1.244 1.795 2.771-.173.96-.331 1.921-.5 2.881-.157.96-.331 1.921-.5 2.881a3.211 3.211 0 01-2.771 2.771h-18.095z"/></g><g data-name="Grupo 7403"><g data-name="Grupo 7399"><path data-name="Caminho 7153" d="M50.489 28.521c-.315 1.811-.645 3.621-.945 5.432H38.052q.449-2.716.945-5.432c.315-1.811.646-3.621.96-5.447l.189-1.134c.425-2.409.866-4.8 1.275-7.211.409-2.393.834-4.8 1.259-7.211a6.313 6.313 0 011.637-3.243 4.337 4.337 0 013.023-1.448h31.424c-.126.8-.283 1.606-.409 2.425-.173.976-.346 1.936-.52 2.913a2.063 2.063 0 01-1.795 1.779H54.724a1.408 1.408 0 00-1.149.945 1.65 1.65 0 01-.063.268c-.22 1.228-.425 2.472-.646 3.7h20.53c-.142.8-.3 1.606-.425 2.409-.173.976-.346 1.936-.52 2.913a2.063 2.063 0 01-1.763 1.779H51.623l-.189 1.134z"/></g><g data-name="Grupo 7400"><path data-name="Caminho 7154" d="M76.88 33.969h-8.6q4.133-5.455 8.234-10.926 4.109-5.455 8.234-10.926h4.959a1.6 1.6 0 011.527 1.055v.016c1.37 3.464 2.787 6.927 4.188 10.391q2.078 5.2 4.2 10.391h-9.21c-.3-.693-.567-1.385-.85-2.078h-10.5c-.52.693-1.023 1.385-1.559 2.078zM87.538 26.9a495.42 495.42 0 01-1.637-4.078 352.668 352.668 0 00-3.086 4.078z"/></g><g data-name="Grupo 7401"><path data-name="Caminho 7155" d="M101.593 33.969h-.771c.094-.567.189-1.134.3-1.7.11-.677.252-1.37.362-2.047a1.433 1.433 0 011.26-1.244h15.13a1 1 0 00.866-.85c.11-.582.2-1.165.3-1.748a.678.678 0 00-.5-.85h-13.499c-1.5 0-2.472-1.48-2.157-3.29.2-1.134.394-2.283.6-3.416.189-1.134.409-2.283.614-3.416a3.81 3.81 0 013.306-3.29h22.23c-.094.567-.2 1.134-.3 1.7-.11.677-.236 1.37-.362 2.047a1.416 1.416 0 01-1.244 1.244h-15.146a1 1 0 00-.85.85c-.11.583-.2 1.165-.3 1.748a.667.667 0 00.5.85h13.492c1.5 0 2.456 1.48 2.141 3.29-.2 1.134-.394 2.283-.6 3.416a237.029 237.029 0 01-.6 3.416c-.315 1.811-1.81 3.29-3.29 3.29h-21.49z"/></g><g data-name="Grupo 7402"><path data-name="Caminho 7156" d="M137.457 33.968c.488-2.8.992-5.62 1.48-8.423s.992-5.62 1.464-8.423h-8.974c.283-1.669.583-3.322.882-4.991h26.024l-.661 3.747a1.417 1.417 0 01-1.259 1.244h-7.951c-.488 2.8-.976 5.62-1.464 8.423s-.992 5.62-1.48 8.423z"/></g></g><g data-name="Grupo 7427"><g data-name="Grupo 7407"><g data-name="Grupo 7404"><path data-name="Caminho 7157" d="M28.842 5.189l-2.33 6.6h6.754l2.314-6.6z" fill="#7be73c"/></g><g data-name="Grupo 7405"><path data-name="Caminho 7158" d="M37.706 17.96h-6.754l2.314-6.6h6.754z" fill="#7be73c"/></g><g data-name="Grupo 7406"><path data-name="Caminho 7159" d="M24.45 17.674l.016 6.6h4.408l2.314-6.6z" fill="#7be73c"/></g></g><g data-name="Grupo 7426"><g data-name="Grupo 7408"><path data-name="Caminho 7160" d="M37.428 6.481c-1.228-1.9-2.755-3.023-4.392-3.023-4.093 0-7.4 6.959-7.4 15.523a29.612 29.612 0 001.023 7.872h-2.645a34.027 34.027 0 01-.886-7.872c0-9.729 3.763-17.617 8.391-17.617 2.299 0 4.377 1.952 5.909 5.117z"/></g><g data-name="Grupo 7425"><g data-name="Grupo 7409"><path data-name="Caminho 7161" d="M20.215 3.001a18.18 18.18 0 012.3-2.928c-.378.031-.756.063-1.118.11-4.408 3.668-7.321 10.548-7.195 18.341a28.111 28.111 0 001.37 8.313h1.574a32.471 32.471 0 01-1.071-7.825 29.043 29.043 0 014.14-16.011z"/></g><g data-name="Grupo 7410"><path data-name="Caminho 7162" d="M17.003 19.783l2.724-2.44 2.5-.677c.047-.992.126-1.984.252-2.944l-1.527.346-3.967 3.29c-.016.535-.016 1.086-.016 1.637.019.269.019.521.034.788z"/></g><g data-name="Grupo 7411"><path data-name="Caminho 7163" d="M17.476 12.731a29.784 29.784 0 00-.425 3.416l3.5-2.9 2.062-.472c.157-.992.346-1.952.583-2.881l-2.031.283z"/></g><g data-name="Grupo 7412"><path data-name="Caminho 7164" d="M18.436 8.904a32.07 32.07 0 00-.708 2.582l3.117-2.141 2.629-.362a21.728 21.728 0 01.913-2.535c.031-.079.063-.142.094-.22l-1.952.173z"/></g><g data-name="Grupo 7413"><path data-name="Caminho 7165" d="M27.334.136A28.791 28.791 0 0023.855.01a16.477 16.477 0 00-2.821 3.351l3.1-1.59 3.5-.031A6.742 6.742 0 0129.807.496a24.563 24.563 0 00-2.473-.36z"/></g><g data-name="Grupo 7414"><path data-name="Caminho 7166" d="M22.277 21.106a26.73 26.73 0 01-.079-1.952c-.016-.52 0-1.039 0-1.559l-2.031.551-3.1 2.771a29.812 29.812 0 00.409 3.212l2.251-2.2z"/></g><g data-name="Grupo 7415"><path data-name="Caminho 7167" d="M20.183 4.812a23.293 23.293 0 00-1.275 2.755L22.23 5.52l2.692-.236a13.131 13.131 0 011.779-2.645l-2.346.031z"/></g><g data-name="Grupo 7416"><path data-name="Caminho 7168" d="M21.286 26.392l-.457.457h2.3c-.079-.315-.142-.645-.22-.96z"/></g><g data-name="Grupo 7417"><path data-name="Caminho 7169" d="M22.34 22.019l-2.141.693-2.519 2.472c.126.567.252 1.134.409 1.669h1.48l1.259-1.228 1.921-.614a39.228 39.228 0 01-.409-2.992z"/></g><g data-name="Grupo 7418"><path data-name="Caminho 7170" d="M14.154 10.904a25.323 25.323 0 01.913-2.928l-2.251-1.135-1.055-1.4c-.016.016-.016.031-.031.047a23.828 23.828 0 00-1.433 2.913l1.873 1.858z"/></g><g data-name="Grupo 7419"><path data-name="Caminho 7171" d="M17.424 3.316c.047-.079.094-.142.142-.22a17.681 17.681 0 012.2-2.661c-.724.142-1.448.3-2.141.5a9.861 9.861 0 00-2.11.85l.173.331z"/></g><g data-name="Grupo 7420"><path data-name="Caminho 7172" d="M11.335 23.374l-2.739-2.3a27.418 27.418 0 00.6 3.464l2.739 1.9 2.692.394a28.243 28.243 0 01-.724-2.865z"/></g><g data-name="Grupo 7421"><path data-name="Caminho 7173" d="M11.047 13.927l2.425.8a29.747 29.747 0 01.472-2.96l-2.251-.74-1.746-1.729c-.063.189-.142.394-.2.6a24.571 24.571 0 00-.6 2.141z"/></g><g data-name="Grupo 7422"><path data-name="Caminho 7174" d="M15.396 7.145a24.18 24.18 0 011.559-3.054l-1.9-1.354-.259-.492a10.04 10.04 0 00-2.5 2.393l1.118 1.5z"/></g><g data-name="Grupo 7423"><path data-name="Caminho 7175" d="M13.318 19.138c0-.2-.016-.394-.016-.6a29.6 29.6 0 01.094-2.9l-2.818-.929-1.651-1.632a25.937 25.937 0 00-.409 3.164l2.472 2.236z"/></g><g data-name="Grupo 7424"><path data-name="Caminho 7176" d="M8.502 19.831l3.259 2.724 1.968.472a30.184 30.184 0 01-.346-2.944l-2.818-.787-2.079-1.89c-.016.409-.016.819 0 1.244a7.394 7.394 0 00.016 1.181z"/></g></g></g></g></g></svg>