<svg xmlns="http://www.w3.org/2000/svg" width="77" height="77"><g data-name="wpp flutuante" transform="translate(-261 -378)"><rect data-name="Retângulo 2" width="77" height="77" rx="20" transform="translate(261 378)" fill="#7be73c"/><path data-name="Icon awesome-whatsapp" d="M315.217 400.362a22.4 22.4 0 00-35.245 27.024l-3.177 11.6 11.873-3.117a22.326 22.326 0 0010.7 2.724h.01a22.609 22.609 0 0022.608-22.394 22.482 22.482 0 00-6.769-15.837zM299.38 434.82a18.58 18.58 0 01-9.485-2.593l-.676-.4-7.037 1.843 1.876-6.869-.444-.706a18.649 18.649 0 1134.589-9.9 18.821 18.821 0 01-18.823 18.625zm10.209-13.941c-.555-.282-3.309-1.634-3.823-1.816s-.888-.282-1.261.282-1.442 1.816-1.775 2.2-.656.424-1.21.141c-3.288-1.644-5.447-2.935-7.616-6.658-.575-.989.575-.918 1.644-3.056a1.037 1.037 0 00-.05-.978c-.141-.282-1.261-3.036-1.725-4.156-.454-1.089-.918-.938-1.261-.958-.323-.02-.7-.02-1.069-.02a2.073 2.073 0 00-1.493.7 6.288 6.288 0 00-1.957 4.67c0 2.754 2.007 5.417 2.28 5.79s3.944 6.022 9.563 8.453c3.551 1.533 4.943 1.664 6.718 1.4 1.079-.161 3.309-1.352 3.773-2.663a4.68 4.68 0 00.321-2.665c-.131-.252-.505-.393-1.059-.666z" fill="#fff"/></g></svg>