<svg xmlns="http://www.w3.org/2000/svg" width="58.209" height="58.21" viewBox="0 0 58.209 58.21">
  <path id="equipe" d="M65.884,37.419,62.94,36.233a1.1,1.1,0,0,0-1.159.2L58.948,35.3a1.115,1.115,0,0,0-1.389.492,2.354,2.354,0,0,1-.368-.422,11.04,11.04,0,0,0-.693-1.659l1.628.132a1.839,1.839,0,0,0,1.516-.626,3.044,3.044,0,0,0,.561-2.572q-.321-1.8-.674-3.594a3.442,3.442,0,0,0-1.347-2.271,1.74,1.74,0,0,0-1.363-.234l-.018,0c-.466.125-1,.271-1.6.435a.974.974,0,0,1-.409-.487q-.626-1.408-1.287-2.8a.975.975,0,0,1-.1-.677l1.57-1.114a2.063,2.063,0,0,0,.8-1.373,3.539,3.539,0,0,0-.711-2.561,37.647,37.647,0,0,0-2.5-2.993,3.02,3.02,0,0,0-2.384-1.014,2.237,2.237,0,0,0-1.707.945L47.248,14.7a.767.767,0,0,1-.722-.043Q45.1,14,43.642,13.427a.874.874,0,0,1-.486-.38l.508-1.972a1.97,1.97,0,0,0-.4-1.744,2.943,2.943,0,0,0-2.433-.954c-1.2.049-2.463.139-3.755.268-1.727.2-2.911,1.207-2.812,2.424l.159,1.612a1,1,0,0,1-.553.331q-1.466.4-2.928.825a1.011,1.011,0,0,1-.643.006l-.715-1.475c-.542-1.072-2.079-1.317-3.667-.576q-1.686.809-3.32,1.719A2.947,2.947,0,0,0,21,15.6a1.98,1.98,0,0,0,.571,1.705L23.016,18.7a.77.77,0,0,1-.2.6Q21.87,20.546,21,21.851c-.239.357-.536.438-.6.412l-1.989-.889a2.238,2.238,0,0,0-1.944.088,3.02,3.02,0,0,0-1.5,2.1,37.087,37.087,0,0,0-.57,3.877,3.534,3.534,0,0,0,.731,2.542,2.067,2.067,0,0,0,1.414.752l1.88.124a.859.859,0,0,1,.3.638c.077.724.166,1.476.26,2.236q-2.7,2.505-5.4,5a6.513,6.513,0,0,0-1.95,4.408,2.377,2.377,0,0,1-.751,1.6l-.408.375a.111.111,0,0,0-.015.01L8.739,46.7a1.119,1.119,0,0,0-.363.824V65.463A1.12,1.12,0,0,0,9.5,66.582h.945a1.12,1.12,0,0,0,.769-.306L18.268,59.6a1.116,1.116,0,0,0,.3-1.119l2.249-2.066a1.116,1.116,0,0,0,.155-1.464,2.356,2.356,0,0,1,.54-.15,9.965,9.965,0,0,0,6.469-1.254c.136-.089.3-.2.494-.335.322.118.64.244.966.352v11.9a1.12,1.12,0,0,0,1.119,1.119H44.275a1.12,1.12,0,0,0,1.119-1.119V58.181a1.116,1.116,0,0,0-.62-1V54.127a1.116,1.116,0,0,0-.974-1.1,2.378,2.378,0,0,1,.2-.4l1.21-.341a3.25,3.25,0,0,0,2.13-1.565,1.756,1.756,0,0,0,.154-.9,7.06,7.06,0,0,0,3.436-.5,2.372,2.372,0,0,1,1.768-.011l.53.213h0l.643.259,1.237.5h0l1.889.76L65,54.66a1.117,1.117,0,0,0,1.581-1.02V38.458a1.122,1.122,0,0,0-.7-1.038ZM51.836,46.9a4.728,4.728,0,0,0-1.733.333,4.6,4.6,0,0,1-2.726.285q.082-.319.134-.645c.057-.354.129-.887.206-1.493.057-.461.117-.961.174-1.461.153-1.343.282-2.65.288-3.026V40.87a2.8,2.8,0,0,0-.324-1.327,3.545,3.545,0,0,0-.712-.924,6,6,0,0,0-.943-.71,2.878,2.878,0,0,0-1.047-.38,4.089,4.089,0,0,0-.9-.061V35.956a1.111,1.111,0,0,0,0-1.9V32.358l.68.274L46,33.06l1.057.425,1.063.428A1.12,1.12,0,0,0,49.3,33.69a1.12,1.12,0,0,0-.345-1.853l-1.7-.682-1.143-.46-.734-.3a1.459,1.459,0,0,1,.361-.661c.073-.052.134-.087.2-.131.473-.313.808-.425,1.066-.354a.516.516,0,0,1,.066.011c.214.087,1.273.64,2.4,1.247.389.21.783.424,1.156.631.419.231.8.448,1.117.629.134.078.26.152.363.214a5.947,5.947,0,0,1,1.695,1.607,8.712,8.712,0,0,1,.832,1.413,8.236,8.236,0,0,1,.445,1.13,1.147,1.147,0,0,0,.127.294c.061.1.127.182.191.272a4.606,4.606,0,0,0,1.281,1.226l-.238.594-.418,1.039L55.608,40.6l-1.755,4.36-.518,1.288-.327.814a4.489,4.489,0,0,0-1.028-.15c-.048,0-.1-.009-.144-.009ZM26.754,51.679a5.183,5.183,0,0,1-.883.46,8.5,8.5,0,0,1-4.142.434,1.12,1.12,0,0,0-.32-.012,4.6,4.6,0,0,0-1.986.683l-6.658-7.252a4.631,4.631,0,0,0,1.092-2.7,4.335,4.335,0,0,1,1.23-2.914q1.1-1.014,2.2-2.032c1.2-1.109,2.655-2.46,4.033-3.738L23.27,32.8l1.059-.983,1.144-1.062.506-.47a.764.764,0,0,1,.562-.206.774.774,0,0,1,.539.25.815.815,0,0,1,.213.583c0,.017,0,.041-.006.062a3.04,3.04,0,0,0-.277.518L25.537,32.85l-1.005.924-.963.884-2.936,2.7A1.12,1.12,0,0,0,22.147,39l2.181-2,.88-.808.9-.829.68-.624.011,2.142-.048.043-.85.782-.852.783-.979.9a1.119,1.119,0,1,0,1.514,1.649l.73-.671.5-.457,0,1.049,0,1.068a1.115,1.115,0,0,0,.006,1.483l0,.517c.006,1.289.009,2.393.01,3.116l-.11.1a1.12,1.12,0,0,0-.067,1.582c.008.009.017.015.026.023a1.088,1.088,0,0,0,.4.261,6.387,6.387,0,0,0,.839,1.751q-.583.415-1.176.815Zm-12.3,8.453-3.837,3.627v-5.3c.035.029.069.059.106.086a1.03,1.03,0,0,0,.191.1.963.963,0,0,0,.206.062,1.023,1.023,0,0,0,.224.022.964.964,0,0,0,.218-.022.986.986,0,0,0,.208-.062,1.293,1.293,0,0,0,.2-.1,1.389,1.389,0,0,0,.168-.14,1.054,1.054,0,0,0,.14-.173.983.983,0,0,0,.1-.19c.017-.041.028-.087.041-.131.008-.028.02-.054.026-.082a1.075,1.075,0,0,0,0-.436,1.584,1.584,0,0,0-.067-.207,1.013,1.013,0,0,0-.241-.364,1.142,1.142,0,0,0-.987-.294,1.113,1.113,0,0,0-.529.24V52.951l5.312,5.787-.661.624-.815.769Zm4.029-4.6-.221.2-.446.41-.666.612-6.533-7.114V48.017l.526-.482,7.334,7.987.007.008Zm2.463-24.264a2.743,2.743,0,0,0-2.34-2.633l-1.791-.122a1.408,1.408,0,0,1-.187-.871A35.183,35.183,0,0,1,17.159,24a.909.909,0,0,1,.343-.58l1.979.884a2.78,2.78,0,0,0,3.374-1.21q.838-1.253,1.746-2.457a2.653,2.653,0,0,0-.015-3.531l-1.326-1.285a1.119,1.119,0,0,1,.409-.352q1.574-.876,3.2-1.656a2.094,2.094,0,0,1,.819-.214l.614,1.269a2.674,2.674,0,0,0,3.264,1.115c.958-.28,1.921-.551,2.881-.811a2.673,2.673,0,0,0,2.2-2.649l-.139-1.41a2.062,2.062,0,0,1,.8-.243q1.806-.183,3.62-.258a1.078,1.078,0,0,1,.519.086l-.459,1.784a2.654,2.654,0,0,0,1.83,3.025q1.4.553,2.771,1.184a2.781,2.781,0,0,0,3.508-.728l1.047-1.525.15-.236a.726.726,0,0,1,.631.29A35.261,35.261,0,0,1,53.267,17.3a1.422,1.422,0,0,1,.3.852l-1.46,1.036a2.743,2.743,0,0,0-.628,3.469q.648,1.363,1.261,2.742a2.659,2.659,0,0,0,2.988,1.755l1.345-.366a2.145,2.145,0,0,1,.257.691c.228,1.164.453,2.349.668,3.56a1.506,1.506,0,0,1,.01.54l-1.622-.132a2.14,2.14,0,0,0-1.21.266,7.867,7.867,0,0,0-1.905-1.649q-.851-.5-1.72-.977a14.35,14.35,0,0,0-.336-1.5,14.279,14.279,0,0,0-27.91,2.122l-2.3,2.134C20.987,31.654,20.962,31.455,20.943,31.265Zm10.74,30.062V59.3H43.155v5.044H31.682Zm10.852-5.773v1.507H31.682V55.247H42.535v.308Zm-2.174-27.18a3,3,0,0,0-5.2-1.228,2.988,2.988,0,0,0-1.517-.41,3.036,3.036,0,0,0-2.851,2,2.921,2.921,0,0,0-.389.094,7.548,7.548,0,0,1,13.836-.745,3.4,3.4,0,0,0-.848,1.242,2.935,2.935,0,0,0-2.753-.843l-.279-.112Zm1.908-5.459A9.79,9.79,0,0,0,28.19,28.365a2.914,2.914,0,0,0-2.2-.471,12.129,12.129,0,0,1,.994-2.316,12.019,12.019,0,0,1,21.9,2.084c-.457-.236-.809-.41-.963-.473a2.838,2.838,0,0,0-1.695-.142,9.728,9.728,0,0,0-3.957-4.13ZM41.49,53.008H31.644a4.618,4.618,0,0,0-.539-1.656l-.01-.017a4.749,4.749,0,0,0-.656-.906c-.015-.016-.027-.034-.043-.05a5.8,5.8,0,0,1-.654-.828,4.055,4.055,0,0,1-.6-1.475,3.208,3.208,0,0,1-.057-.574V46.61l0-1.515-.009-2.1h0l-.006-1.422v-.09l-.007-1.433v-.08l-.01-2.1-.007-1.434v-.085l-.008-1.514q0-1.07-.012-2.14v-.041a.78.78,0,0,1,.778-.782.881.881,0,0,1,.106.01l.036,0a.8.8,0,0,1,.169.048.793.793,0,0,1,.5.719v8.716a1.122,1.122,0,0,0,1.335,1.1.884.884,0,0,0,.087-.025,1.088,1.088,0,0,0,.286-.124,1.116,1.116,0,0,0,.48-.634c0-.015.01-.03.014-.046a1.1,1.1,0,0,0,.036-.268V29.752a.754.754,0,0,1,.166-.46.811.811,0,0,1,.636-.315.726.726,0,0,1,.13.013.781.781,0,0,1,.647.768h0V40.21a1.1,1.1,0,0,0,.155.557c.01.017.017.035.028.052a1.127,1.127,0,0,0,.383.359,1.11,1.11,0,0,0,.554.152h0a1.108,1.108,0,0,0,.31-.049,1.141,1.141,0,0,0,.81-1.07V29.117a.778.778,0,0,1,1.555,0V39.848a1.128,1.128,0,0,0,1.119,1.119,1.129,1.129,0,0,0,1.119-1.119V31.441a.781.781,0,0,1,.207-.528.771.771,0,0,1,.57-.255.781.781,0,0,1,.778.782V43.565a1.1,1.1,0,0,0,.017.175c0,.017,0,.036.006.053a1.115,1.115,0,0,0,2.076.3,1.106,1.106,0,0,0,.139-.53V39.712A1.457,1.457,0,0,1,45,39.8a3.741,3.741,0,0,1,.644.49.815.815,0,0,1,.294.57c0,.1-.021.358-.055.715q-.194,2.014-.454,4.022-.062.476-.136.951c-.009.054-.024.106-.034.159a5.513,5.513,0,0,1-.332,1.073,6.824,6.824,0,0,1-.527.995,9.152,9.152,0,0,1-1.578,1.851c-.162.144-.266.226-.27.229a1.144,1.144,0,0,0-.226.228,4.707,4.707,0,0,0-.571,1.006,4.833,4.833,0,0,0-.268.92ZM59.15,37.792l.281.113.561.226.841.338L56.784,48.538l-.843-.339L55.1,47.86l.637-1.583,1.676-4.166.076-.19.847-2.106.81-2.012.006-.01Zm-.306,11.623,4.3-10.687.843.34.361.145v3.047a1.2,1.2,0,0,0-.436-.008,1.068,1.068,0,0,0-.594.3.979.979,0,0,0-.241.364,1.278,1.278,0,0,0-.067.207,1.443,1.443,0,0,0-.023.218,1.129,1.129,0,0,0,.222.661,1.05,1.05,0,0,0,.109.133,1.129,1.129,0,0,0,.789.325,1.115,1.115,0,0,0,.241-.028v7.475l-3.655-1.654L59.67,49.79l-.826-.375ZM40.339,61.7a1.349,1.349,0,0,1,.017.218,1.117,1.117,0,0,1-1.909.794,2.215,2.215,0,0,1-.14-.173,1.3,1.3,0,0,1-.1-.19,1.342,1.342,0,0,1-.067-.213,1.075,1.075,0,0,1,0-.436,1.278,1.278,0,0,1,.15-.369c.006-.01.01-.023.017-.034a1.39,1.39,0,0,1,.14-.168,1.315,1.315,0,0,1,.169-.14,2.09,2.09,0,0,1,.2-.106c.067-.022.14-.045.208-.062a1.145,1.145,0,0,1,.436,0c.073.017.145.04.213.062a1.582,1.582,0,0,1,.19.106,1.054,1.054,0,0,1,.173.14,1.39,1.39,0,0,1,.14.168c.007.01.011.022.017.034a1.32,1.32,0,0,1,.084.162A1.129,1.129,0,0,1,40.339,61.7Z" transform="translate(-8.376 -8.373)" fill="#7be73c"/>
</svg>
