<svg xmlns="http://www.w3.org/2000/svg" width="71.344" height="68.784" viewBox="0 0 71.344 68.784">
  <path id="experiencia" d="M33.843,43.262l2.282,4.718,5.177.7a1.225,1.225,0,0,1,.689,2.083L38.208,54.4l.934,5.147a1.215,1.215,0,0,1-1.777,1.287l-4.61-2.481-4.61,2.481a1.216,1.216,0,0,1-1.761-1.363l.919-5.085-3.783-3.63a1.225,1.225,0,0,1,.7-2.1l5.162-.7,2.282-4.718a1.207,1.207,0,0,1,2.175.031Zm.368,6.372L32.755,46.6l-1.47,3.033a1.254,1.254,0,0,1-.934.689l-3.324.444L29.462,53.1a1.224,1.224,0,0,1,.352,1.088l-.6,3.308,2.941-1.578a1.209,1.209,0,0,1,1.164,0l2.956,1.593L35.7,54.26a1.247,1.247,0,0,1,.337-1.164l2.435-2.328-3.293-.444A1.25,1.25,0,0,1,34.21,49.634Zm25.7-17.477,2.282,4.718,5.193.7a1.236,1.236,0,0,1,.689,2.1l-3.783,3.63.934,5.147a1.215,1.215,0,0,1-1.777,1.287L58.809,47.26,54.2,49.742a1.216,1.216,0,0,1-1.761-1.363l.919-5.085-3.8-3.63a1.225,1.225,0,0,1,.7-2.1l5.162-.7,2.282-4.7a1.222,1.222,0,0,1,2.206,0Zm.368,6.372L58.809,35.5l-1.455,3.033a1.254,1.254,0,0,1-.934.689l-3.339.444,2.435,2.328a1.184,1.184,0,0,1,.352,1.088l-.6,3.309,2.956-1.578a1.209,1.209,0,0,1,1.164,0L62.348,46.4l-.582-3.247a1.247,1.247,0,0,1,.337-1.164l2.435-2.328-3.293-.46A1.177,1.177,0,0,1,60.28,38.529Zm25.687,4.733,2.282,4.718,5.177.7a1.221,1.221,0,0,1,.689,2.083L90.332,54.4l.934,5.147a1.215,1.215,0,0,1-1.777,1.287l-4.61-2.481-4.61,2.481a1.227,1.227,0,0,1-1.777-1.363l.919-5.085-3.783-3.63a1.225,1.225,0,0,1,.7-2.1l5.162-.7,2.282-4.718a1.219,1.219,0,0,1,2.19.031Zm.368,6.372L84.879,46.6l-1.47,3.033a1.228,1.228,0,0,1-.934.689l-3.324.444,2.42,2.328a1.224,1.224,0,0,1,.352,1.088l-.6,3.308,2.956-1.578a1.209,1.209,0,0,1,1.164,0l2.972,1.593-.582-3.247a1.247,1.247,0,0,1,.337-1.164l2.42-2.328L87.3,50.324A1.25,1.25,0,0,1,86.334,49.634ZM53.127,74.54a1.222,1.222,0,1,1,2.114-1.225L56.849,76.1l5.713-5.713a1.224,1.224,0,1,1,1.731,1.731l-6.847,6.847a1.218,1.218,0,0,1-1.915-.245ZM58.809,61.6a12.07,12.07,0,1,1-12.07,12.07A12.074,12.074,0,0,1,58.809,61.6Zm6.8,5.269a9.618,9.618,0,1,0,0,13.6A9.624,9.624,0,0,0,65.61,66.866Zm-6.8-12.851A19.642,19.642,0,0,1,75.03,84.726L80.9,94.881a1.226,1.226,0,0,1-1.225,1.869l-6-.95-3.217,3.952a1.217,1.217,0,0,1-2.037-.123l-4.1-7.107a19.744,19.744,0,0,1-11,0l-4.1,7.107a1.217,1.217,0,0,1-2.037.123L43.952,95.8l-6,.95a1.233,1.233,0,0,1-1.256-1.823l5.9-10.2A19.64,19.64,0,0,1,58.809,54.015Zm14.6,32.779a19.584,19.584,0,0,1-6.77,4.886l3,5.193,2.573-3.155a1.191,1.191,0,0,1,1.164-.429l4.136.659ZM50.967,91.68a19.83,19.83,0,0,1-6.755-4.871l-4.12,7.138,4.136-.659a1.236,1.236,0,0,1,1.164.429l2.573,3.155Zm20-30.175a17.189,17.189,0,1,0,0,24.308A17.2,17.2,0,0,0,70.971,61.505Z" transform="translate(-23.142 -31.462)" fill="#7be73c"/>
</svg>
