<svg width="56" height="56" viewBox="0 0 56 56" fill="none" xmlns="http://www.w3.org/2000/svg">
<path d="M41.4545 0H14.5455C6.51222 0 0 6.51222 0 14.5455V41.4545C0 49.4878 6.51222 56 14.5455 56H41.4545C49.4878 56 56 49.4878 56 41.4545V14.5455C56 6.51222 49.4878 0 41.4545 0Z" fill="#7BE73C"/>
<path d="M39.4296 16.2633C36.6354 13.4707 32.9216 11.7885 28.9796 11.53C25.0376 11.2715 21.1359 12.4542 18.0009 14.8579C14.8659 17.2617 12.7112 20.7227 11.9378 24.5967C11.1644 28.4708 11.8251 32.4939 13.7969 35.9171L11.4863 44.3535L20.1212 42.0865C22.5084 43.388 25.1842 44.0692 27.9031 44.0676H27.9103C32.2442 44.0676 36.4028 42.3567 39.4818 39.3068C42.5608 36.2569 44.3113 32.1147 44.3525 27.7811C44.3292 25.6319 43.8824 23.5084 43.0377 21.5321C42.193 19.5557 40.9669 17.7653 39.4296 16.2633ZM27.9118 41.3236C25.4848 41.3259 23.1019 40.6745 21.0136 39.4378L20.522 39.1469L15.4041 40.4873L16.7685 35.4916L16.4456 34.9782C15.363 33.1949 14.7064 31.1859 14.5267 29.1075C14.3471 27.0291 14.6494 24.9373 15.41 22.9947C16.1706 21.0521 17.3691 19.3112 18.9123 17.9074C20.4554 16.5035 22.3016 15.4745 24.3072 14.9005C26.3128 14.3264 28.4239 14.2228 30.4761 14.5976C32.5283 14.9724 34.4664 15.8156 36.1396 17.0615C37.8129 18.3074 39.1761 19.9226 40.1234 21.7813C41.0707 23.64 41.5764 25.6922 41.6012 27.7782C41.5637 31.384 40.1048 34.8293 37.5415 37.3655C34.9783 39.9018 31.5178 41.3242 27.9118 41.3236ZM35.3365 31.1847C34.9329 30.9796 32.93 29.9964 32.5561 29.864C32.1823 29.7316 31.9103 29.6589 31.6391 30.0691C31.3678 30.4793 30.5903 31.3898 30.3481 31.6691C30.106 31.9484 29.8711 31.9774 29.4681 31.7716C27.0769 30.576 25.5067 29.6371 23.9292 26.9294C23.5111 26.2102 24.3474 26.2618 25.1249 24.7069C25.1779 24.5945 25.2023 24.4708 25.1959 24.3467C25.1896 24.2226 25.1527 24.102 25.0885 23.9956C24.986 23.7905 24.1714 21.7876 23.834 20.9731C23.5038 20.1811 23.1663 20.2909 22.9169 20.2764C22.682 20.2618 22.4078 20.2618 22.1394 20.2618C21.9332 20.2679 21.7305 20.3162 21.5437 20.4037C21.3569 20.4913 21.1901 20.6163 21.0536 20.7709C20.5939 21.2075 20.23 21.7348 19.985 22.3195C19.74 22.9042 19.6192 23.5334 19.6303 24.1673C19.6303 26.1702 21.09 28.1069 21.2885 28.3782C21.4871 28.6494 24.1569 32.7578 28.2434 34.5258C30.826 35.6407 31.8383 35.736 33.1292 35.544C33.914 35.4269 35.5358 34.5607 35.8732 33.6073C36.1386 32.9979 36.2198 32.3241 36.1067 31.6691C36.0114 31.4858 35.7394 31.3833 35.3365 31.1847Z" fill="white"/>
</svg>
