<svg xmlns="http://www.w3.org/2000/svg" width="158.333" height="70.667" viewBox="0 0 158.333 70.667">
  <g id="Fast-fundo-branco" transform="translate(-21.1 -46.339)">
    <g id="Grupo_7397" data-name="Grupo 7397" transform="translate(39.677 109.181)">
      <g id="Grupo_7383" data-name="Grupo 7383" transform="translate(35.769)">
        <path id="Caminho_7134" data-name="Caminho 7134" d="M370.283,450.932l-.142.661c-.126.567-.236,1.134-.362,1.7H366.3c.11-.567.236-1.134.362-1.7l.236-1.086c.173-.834.346-1.669.535-2.5.173-.834.346-1.669.535-2.5h9.824a.923.923,0,0,1,.929,1.165c-.11.5-.22,1.023-.315,1.527-.11.5-.22,1.023-.331,1.527a1.527,1.527,0,0,1-1.433,1.165h-4.692C371.369,450.932,370.834,450.932,370.283,450.932Zm4.471-2.078c.094-.425.173-.834.268-1.259a.237.237,0,0,0-.236-.3h-3.731c-.126.614-.268,1.244-.394,1.858h3.731A.4.4,0,0,0,374.754,448.853Z" transform="translate(-366.3 -445.5)"/>
        <path id="Caminho_7135" data-name="Caminho 7135" d="M482.94,451.026c-.583-.661-1.165-1.322-1.748-2-.157.708-.3,1.417-.457,2.141-.157.708-.3,1.417-.457,2.141H476.8c.268-1.291.551-2.6.819-3.889s.551-2.6.819-3.889h3.086a.9.9,0,0,1,.693.283l1.747,1.984,1.747,1.984c.157-.708.3-1.417.457-2.141.157-.708.3-1.417.457-2.141H490.1c-.268,1.291-.551,2.6-.819,3.889s-.551,2.6-.819,3.889h-3.1a.891.891,0,0,1-.677-.283C484.105,452.348,483.523,451.687,482.94,451.026Z" transform="translate(-459.403 -445.5)"/>
        <path id="Caminho_7136" data-name="Caminho 7136" d="M593.054,452.128l.142-.661c.173-.8.346-1.59.5-2.393.173-.8.346-1.59.5-2.393a1.5,1.5,0,0,1,.5-.819,1.419,1.419,0,0,1,.913-.362h9.509c-.031.2-.079.409-.126.6-.047.236-.094.488-.157.724a.572.572,0,0,1-.551.441h-6.439a.393.393,0,0,0-.346.236.119.119,0,0,0-.031.063c-.063.315-.126.614-.189.929h6.2c-.047.2-.094.409-.126.6-.063.236-.11.488-.157.724a.555.555,0,0,1-.535.441h-5.762c-.063.315-.126.614-.189.929v.063a.246.246,0,0,0,.252.236h6.9c-.047.2-.094.409-.126.6-.047.236-.094.488-.157.724a.587.587,0,0,1-.535.441h-9.037A.872.872,0,0,1,593.054,452.128Z" transform="translate(-557.332 -445.5)"/>
        <path id="Caminho_7137" data-name="Caminho 7137" d="M702.683,447.741c.157-.708.3-1.433.457-2.141h3.479c-.157.708-.315,1.433-.457,2.141-.157.708-.3,1.433-.457,2.141-.047.22-.094.457-.142.677-.063.252-.11.488-.157.74a.231.231,0,0,0,.236.3h4.093a.4.4,0,0,0,.362-.3c.031-.157.063-.331.11-.488.063-.315.126-.614.189-.929.157-.708.315-1.433.457-2.141.157-.708.3-1.433.457-2.141h3.5c-.157.708-.3,1.433-.457,2.141s-.315,1.433-.457,2.141c-.063.315-.126.614-.189.929-.094.457-.2.929-.3,1.385a1.539,1.539,0,0,1-1.417,1.181h-9.3a.93.93,0,0,1-.929-1.181c.11-.551.236-1.086.346-1.637.047-.22.094-.457.142-.677C702.384,449.174,702.525,448.465,702.683,447.741Z" transform="translate(-648.918 -445.584)"/>
        <path id="Caminho_7138" data-name="Caminho 7138" d="M816.031,453.562H815.7c.031-.2.079-.409.126-.6.047-.236.11-.488.157-.724a.587.587,0,0,1,.535-.441h6.549a.422.422,0,0,0,.378-.3c.047-.2.094-.409.126-.63a.239.239,0,0,0-.22-.3h-5.809a.923.923,0,0,1-.929-1.165c.094-.409.173-.819.252-1.212.079-.409.173-.819.268-1.212a1.539,1.539,0,0,1,1.417-1.181h9.588c-.047.2-.094.409-.126.6-.047.236-.094.488-.157.724a.569.569,0,0,1-.535.441h-6.549a.4.4,0,0,0-.362.3c-.047.2-.094.409-.126.63a.239.239,0,0,0,.22.3h5.809a.931.931,0,0,1,.929,1.181c-.079.409-.173.819-.252,1.212-.079.409-.173.819-.252,1.212a1.539,1.539,0,0,1-1.417,1.181h-8.407C816.582,453.562,816.3,453.562,816.031,453.562Z" transform="translate(-744.949 -445.753)"/>
      </g>
      <g id="Grupo_7396" data-name="Grupo 7396" transform="translate(0 0.016)">
        <g id="Grupo_7386" data-name="Grupo 7386">
          <g id="Grupo_7384" data-name="Grupo 7384">
            <path id="Caminho_7139" data-name="Caminho 7139" d="M143,449.5h-3.9l.787-3.9h3.9Z" transform="translate(-139.1 -445.6)" fill="#7be73c"/>
          </g>
          <g id="Grupo_7385" data-name="Grupo 7385" transform="translate(3.101 3.889)">
            <path id="Caminho_7140" data-name="Caminho 7140" d="M162.7,474.2h-3.9l.787-3.9h3.9Z" transform="translate(-158.8 -470.3)" fill="#7be73c"/>
          </g>
        </g>
        <g id="Grupo_7389" data-name="Grupo 7389" transform="translate(7.699)">
          <g id="Grupo_7387" data-name="Grupo 7387">
            <path id="Caminho_7141" data-name="Caminho 7141" d="M191.889,449.5H188l.787-3.9h3.889Z" transform="translate(-188 -445.6)" fill="#7be73c"/>
          </g>
          <g id="Grupo_7388" data-name="Grupo 7388" transform="translate(3.101 3.889)">
            <path id="Caminho_7142" data-name="Caminho 7142" d="M211.589,474.2H207.7l.787-3.9h3.889Z" transform="translate(-207.7 -470.3)" fill="#7be73c"/>
          </g>
        </g>
        <g id="Grupo_7392" data-name="Grupo 7392" transform="translate(15.381)">
          <g id="Grupo_7390" data-name="Grupo 7390">
            <path id="Caminho_7143" data-name="Caminho 7143" d="M240.7,449.5h-3.9l.787-3.9h3.9Z" transform="translate(-236.8 -445.6)" fill="#7be73c"/>
          </g>
          <g id="Grupo_7391" data-name="Grupo 7391" transform="translate(3.101 3.889)">
            <path id="Caminho_7144" data-name="Caminho 7144" d="M260.389,474.2H256.5l.787-3.9h3.9Z" transform="translate(-256.5 -470.3)" fill="#7be73c"/>
          </g>
        </g>
        <g id="Grupo_7395" data-name="Grupo 7395" transform="translate(23.064)">
          <g id="Grupo_7393" data-name="Grupo 7393">
            <path id="Caminho_7145" data-name="Caminho 7145" d="M289.5,449.5h-3.9l.787-3.9h3.9Z" transform="translate(-285.6 -445.6)" fill="#7be73c"/>
          </g>
          <g id="Grupo_7394" data-name="Grupo 7394" transform="translate(3.101 3.889)">
            <path id="Caminho_7146" data-name="Caminho 7146" d="M309.2,474.2h-3.9l.787-3.9h3.9Z" transform="translate(-305.3 -470.3)" fill="#7be73c"/>
          </g>
        </g>
      </g>
    </g>
    <g id="Grupo_7428" data-name="Grupo 7428" transform="translate(21.1 46.339)">
      <g id="Grupo_7398" data-name="Grupo 7398" transform="translate(0 30.284)">
        <path id="Caminho_7147" data-name="Caminho 7147" d="M22.029,264.913H21.1c.11-.677.22-1.354.346-2.031.142-.819.3-1.637.441-2.456a1.731,1.731,0,0,1,1.5-1.5H41.551a1.166,1.166,0,0,0,1.023-1.023c.126-.693.252-1.4.362-2.094a.785.785,0,0,0-.614-1.008h-16.2c-1.795,0-2.976-1.779-2.582-3.952.236-1.37.488-2.739.708-4.093.236-1.37.488-2.739.74-4.109.378-2.173,2.173-3.952,3.967-3.952H55.641c-.126.677-.252,1.354-.362,2.031-.142.819-.283,1.637-.441,2.456a1.731,1.731,0,0,1-1.48,1.5H35.175a1.166,1.166,0,0,0-1.008,1.023c-.126.693-.252,1.4-.362,2.094-.094.535.173.976.614,1.008h16.2c1.795,0,2.944,1.779,2.566,3.952-.236,1.37-.472,2.739-.708,4.093-.236,1.37-.472,2.724-.708,4.093-.394,2.173-2.173,3.952-3.952,3.952H24.406C23.572,264.913,22.785,264.913,22.029,264.913Z" transform="translate(-21.1 -238.7)" fill="#7be73c"/>
        <path id="Caminho_7148" data-name="Caminho 7148" d="M236.132,304.018c.378-2.141.756-4.282,1.118-6.423.378-2.141.756-4.282,1.118-6.423a3.211,3.211,0,0,1,2.787-2.771h18.2c1.259,0,2.062,1.244,1.811,2.771-.378,2.141-.756,4.282-1.118,6.423-.378,2.141-.756,4.282-1.118,6.423a3.2,3.2,0,0,1-2.771,2.771H237.974C236.7,306.789,235.865,305.529,236.132,304.018Zm7.651-1.433h7.982a.817.817,0,0,0,.708-.708c.252-1.433.5-2.85.756-4.282s.5-2.85.756-4.282c.063-.394-.126-.708-.457-.708h-7.982a.849.849,0,0,0-.708.708c-.252,1.433-.5,2.85-.756,4.282s-.5,2.85-.756,4.282C243.248,302.27,243.437,302.585,243.784,302.585Z" transform="translate(-202.237 -280.575)" fill="#7be73c"/>
        <path id="Caminho_7149" data-name="Caminho 7149" d="M396.27,293.469c.3-1.685.583-3.369.9-5.069h6.8c-.3,1.685-.6,3.385-.9,5.069s-.583,3.369-.882,5.069l-.283,1.606c-.11.583-.2,1.165-.3,1.732-.063.394.142.708.472.708h7.982a.831.831,0,0,0,.708-.708c.079-.378.142-.771.2-1.149.126-.724.252-1.464.378-2.188.3-1.685.6-3.369.9-5.069.3-1.685.583-3.369.882-5.069h6.833c-.3,1.685-.6,3.385-.9,5.069s-.6,3.369-.9,5.069c-.126.724-.252,1.464-.378,2.188-.189,1.1-.394,2.188-.583,3.29a3.211,3.211,0,0,1-2.787,2.771H396.239c-1.26,0-2.078-1.244-1.811-2.771.236-1.291.457-2.582.693-3.873.079-.535.189-1.071.283-1.606C395.688,296.839,395.971,295.154,396.27,293.469Z" transform="translate(-335.611 -280.575)" fill="#7be73c"/>
        <path id="Caminho_7150" data-name="Caminho 7150" d="M553.446,306.789H552.8c.079-.472.157-.945.252-1.433.094-.567.2-1.149.3-1.716a1.215,1.215,0,0,1,1.055-1.055h12.737a.831.831,0,0,0,.724-.708c.094-.488.173-.976.252-1.464a.564.564,0,0,0-.425-.708H556.342c-1.259,0-2.078-1.244-1.81-2.771.173-.96.331-1.921.5-2.881l.52-2.881a3.211,3.211,0,0,1,2.787-2.771h18.688c-.079.472-.173.945-.252,1.433-.094.583-.189,1.149-.3,1.716a1.215,1.215,0,0,1-1.039,1.055H562.7a.815.815,0,0,0-.708.708c-.094.488-.173.976-.252,1.464a.554.554,0,0,0,.425.708h11.351c1.26,0,2.062,1.244,1.795,2.771-.173.96-.331,1.921-.5,2.881-.157.96-.331,1.921-.5,2.881a3.211,3.211,0,0,1-2.771,2.771H553.446Z" transform="translate(-469.092 -280.575)" fill="#7be73c"/>
        <path id="Caminho_7151" data-name="Caminho 7151" d="M693.842,306.789H686.6c2.314-3.07,4.629-6.124,6.927-9.194,2.314-3.07,4.629-6.124,6.927-9.194h4.172a1.332,1.332,0,0,1,1.275.882v.016q1.748,4.369,3.526,8.738c1.181,2.913,2.346,5.825,3.527,8.738h-7.762c-.252-.583-.472-1.165-.708-1.748h-8.848q-.638.874-1.323,1.748A4.578,4.578,0,0,1,693.842,306.789Zm8.974-5.951c-.472-1.149-.929-2.283-1.385-3.432-.882,1.149-1.748,2.283-2.6,3.432Z" transform="translate(-581.827 -280.575)" fill="#7be73c"/>
        <path id="Caminho_7152" data-name="Caminho 7152" d="M864.445,306.789H863.8c.079-.472.157-.945.252-1.433.094-.567.2-1.149.3-1.716a1.215,1.215,0,0,1,1.055-1.055h12.737a.831.831,0,0,0,.724-.708c.094-.488.173-.976.252-1.464a.564.564,0,0,0-.425-.708H867.342c-1.26,0-2.078-1.244-1.811-2.771.173-.96.331-1.921.5-2.881l.52-2.881a3.211,3.211,0,0,1,2.787-2.771h18.688c-.079.472-.173.945-.252,1.433-.094.583-.189,1.149-.3,1.716a1.215,1.215,0,0,1-1.039,1.055H873.7a.815.815,0,0,0-.708.708c-.094.488-.173.976-.252,1.464a.554.554,0,0,0,.425.708h11.351c1.259,0,2.062,1.244,1.795,2.771-.173.96-.331,1.921-.5,2.881-.157.96-.331,1.921-.5,2.881a3.211,3.211,0,0,1-2.771,2.771H864.445Z" transform="translate(-731.129 -280.575)" fill="#7be73c"/>
      </g>
      <g id="Grupo_7403" data-name="Grupo 7403" transform="translate(38.052 2.828)">
        <g id="Grupo_7399" data-name="Grupo 7399">
          <path id="Caminho_7153" data-name="Caminho 7153" d="M275.237,89.993c-.315,1.811-.645,3.621-.945,5.432H262.8q.449-2.716.945-5.432c.315-1.811.646-3.621.96-5.447l.189-1.134c.425-2.409.866-4.8,1.275-7.211.409-2.393.834-4.8,1.259-7.211a6.313,6.313,0,0,1,1.637-3.243,4.337,4.337,0,0,1,3.023-1.448h31.424c-.126.8-.283,1.606-.409,2.425-.173.976-.346,1.936-.52,2.913a2.063,2.063,0,0,1-1.795,1.779H279.472a1.408,1.408,0,0,0-1.149.945,1.65,1.65,0,0,1-.063.268c-.22,1.228-.425,2.472-.646,3.7h20.53c-.142.8-.3,1.606-.425,2.409-.173.976-.346,1.936-.52,2.913a2.063,2.063,0,0,1-1.763,1.779H276.371l-.189,1.134Z" transform="translate(-262.8 -64.3)"/>
        </g>
        <g id="Grupo_7400" data-name="Grupo 7400" transform="translate(30.228 9.289)">
          <path id="Caminho_7154" data-name="Caminho 7154" d="M463.4,145.152h-8.6q4.133-5.455,8.234-10.926,4.109-5.455,8.234-10.926h4.959a1.6,1.6,0,0,1,1.527,1.055v.016c1.37,3.464,2.787,6.927,4.188,10.391q2.078,5.2,4.2,10.391h-9.21c-.3-.693-.567-1.385-.85-2.078h-10.5c-.52.693-1.023,1.385-1.559,2.078Zm10.658-7.069c-.551-1.354-1.1-2.724-1.637-4.078-1.039,1.354-2.078,2.724-3.086,4.078Z" transform="translate(-454.8 -123.3)"/>
        </g>
        <g id="Grupo_7401" data-name="Grupo 7401" transform="translate(62.77 9.289)">
          <path id="Caminho_7155" data-name="Caminho 7155" d="M662.271,145.152H661.5c.094-.567.189-1.134.3-1.7.11-.677.252-1.37.362-2.047a1.433,1.433,0,0,1,1.26-1.244h15.13a1,1,0,0,0,.866-.85c.11-.582.2-1.165.3-1.748a.678.678,0,0,0-.5-.85H665.719c-1.5,0-2.472-1.48-2.157-3.29.2-1.134.394-2.283.6-3.416.189-1.134.409-2.283.614-3.416a3.81,3.81,0,0,1,3.306-3.29h22.23c-.094.567-.2,1.134-.3,1.7-.11.677-.236,1.37-.362,2.047a1.416,1.416,0,0,1-1.244,1.244H673.26a1,1,0,0,0-.85.85c-.11.583-.2,1.165-.3,1.748a.667.667,0,0,0,.5.85h13.492c1.5,0,2.456,1.48,2.141,3.29-.2,1.134-.394,2.283-.6,3.416-.189,1.134-.394,2.283-.6,3.416-.315,1.811-1.81,3.29-3.29,3.29h-21.49Z" transform="translate(-661.5 -123.3)"/>
        </g>
        <g id="Grupo_7402" data-name="Grupo 7402" transform="translate(93.375 9.304)">
          <path id="Caminho_7156" data-name="Caminho 7156" d="M861.93,145.236c.488-2.8.992-5.62,1.48-8.423s.992-5.62,1.464-8.423H855.9c.283-1.669.583-3.322.882-4.991h26.024c-.22,1.244-.441,2.5-.661,3.747a1.417,1.417,0,0,1-1.259,1.244h-7.951c-.488,2.8-.976,5.62-1.464,8.423s-.992,5.62-1.48,8.423Z" transform="translate(-855.9 -123.4)"/>
        </g>
      </g>
      <g id="Grupo_7427" data-name="Grupo 7427" transform="translate(8.469)">
        <g id="Grupo_7407" data-name="Grupo 7407" transform="translate(15.981 5.189)">
          <g id="Grupo_7404" data-name="Grupo 7404" transform="translate(2.062)">
            <path id="Caminho_7157" data-name="Caminho 7157" d="M191.83,79.3l-2.33,6.6h6.754l2.314-6.6Z" transform="translate(-189.5 -79.3)" fill="#7be73c"/>
          </g>
          <g id="Grupo_7405" data-name="Grupo 7405" transform="translate(6.502 6.171)">
            <path id="Caminho_7158" data-name="Caminho 7158" d="M224.454,125.1H217.7l2.314-6.6h6.754Z" transform="translate(-217.7 -118.5)" fill="#7be73c"/>
          </g>
          <g id="Grupo_7406" data-name="Grupo 7406" transform="translate(0 12.485)">
            <path id="Caminho_7159" data-name="Caminho 7159" d="M176.4,158.6l.016,6.6h4.408l2.314-6.6Z" transform="translate(-176.4 -158.6)" fill="#7be73c"/>
          </g>
        </g>
        <g id="Grupo_7426" data-name="Grupo 7426">
          <g id="Grupo_7408" data-name="Grupo 7408" transform="translate(14.659 1.364)">
            <path id="Caminho_7160" data-name="Caminho 7160" d="M182.3,60.117c-1.228-1.9-2.755-3.023-4.392-3.023-4.093,0-7.4,6.959-7.4,15.523a29.612,29.612,0,0,0,1.023,7.872h-2.645A34.027,34.027,0,0,1,168,72.617C168,62.888,171.763,55,176.391,55,178.69,55,180.768,56.952,182.3,60.117Z" transform="translate(-168 -55)"/>
          </g>
          <g id="Grupo_7425" data-name="Grupo 7425">
            <g id="Grupo_7409" data-name="Grupo 7409" transform="translate(5.728 0.073)">
              <path id="Caminho_7161" data-name="Caminho 7161" d="M117.293,49.728a18.18,18.18,0,0,1,2.3-2.928c-.378.031-.756.063-1.118.11-4.408,3.668-7.321,10.548-7.195,18.341a28.111,28.111,0,0,0,1.37,8.313h1.574a32.471,32.471,0,0,1-1.071-7.825A29.043,29.043,0,0,1,117.293,49.728Z" transform="translate(-111.275 -46.8)"/>
            </g>
            <g id="Grupo_7410" data-name="Grupo 7410" transform="translate(8.503 13.722)">
              <path id="Caminho_7162" data-name="Caminho 7162" d="M128.931,139.561l2.724-2.44,2.5-.677c.047-.992.126-1.984.252-2.944l-1.527.346-3.967,3.29c-.016.535-.016,1.086-.016,1.637C128.916,139.042,128.916,139.294,128.931,139.561Z" transform="translate(-128.9 -133.5)"/>
            </g>
            <g id="Grupo_7411" data-name="Grupo 7411" transform="translate(8.582 9.897)">
              <path id="Caminho_7163" data-name="Caminho 7163" d="M129.825,112.034a29.784,29.784,0,0,0-.425,3.416l3.5-2.9,2.062-.472c.157-.992.346-1.952.583-2.881l-2.031.283Z" transform="translate(-129.4 -109.2)"/>
            </g>
            <g id="Grupo_7412" data-name="Grupo 7412" transform="translate(9.259 6.228)">
              <path id="Caminho_7164" data-name="Caminho 7164" d="M134.408,88.576c-.268.834-.5,1.685-.708,2.582l3.117-2.141,2.629-.362a21.728,21.728,0,0,1,.913-2.535c.031-.079.063-.142.094-.22l-1.952.173Z" transform="translate(-133.7 -85.9)"/>
            </g>
            <g id="Grupo_7413" data-name="Grupo 7413" transform="translate(12.565)">
              <path id="Caminho_7165" data-name="Caminho 7165" d="M161,46.475a28.791,28.791,0,0,0-3.479-.126A16.477,16.477,0,0,0,154.7,49.7l3.1-1.59,3.5-.031a6.742,6.742,0,0,1,2.173-1.244A24.563,24.563,0,0,0,161,46.475Z" transform="translate(-154.7 -46.339)"/>
            </g>
            <g id="Grupo_7414" data-name="Grupo 7414" transform="translate(8.597 17.595)">
              <path id="Caminho_7166" data-name="Caminho 7166" d="M134.711,161.611c-.047-.645-.079-1.291-.079-1.952-.016-.52,0-1.039,0-1.559l-2.031.551-3.1,2.771a29.812,29.812,0,0,0,.409,3.212l2.251-2.2Z" transform="translate(-129.5 -158.1)"/>
            </g>
            <g id="Grupo_7415" data-name="Grupo 7415" transform="translate(10.439 2.639)">
              <path id="Caminho_7167" data-name="Caminho 7167" d="M142.475,65.273a23.293,23.293,0,0,0-1.275,2.755l3.322-2.047,2.692-.236a13.131,13.131,0,0,1,1.779-2.645l-2.346.031Z" transform="translate(-141.2 -63.1)"/>
            </g>
            <g id="Grupo_7416" data-name="Grupo 7416" transform="translate(12.36 25.892)">
              <path id="Caminho_7168" data-name="Caminho 7168" d="M153.857,211.3l-.457.457h2.3c-.079-.315-.142-.645-.22-.96Z" transform="translate(-153.4 -210.8)"/>
            </g>
            <g id="Grupo_7417" data-name="Grupo 7417" transform="translate(9.211 22.019)">
              <path id="Caminho_7169" data-name="Caminho 7169" d="M138.06,186.2l-2.141.693-2.519,2.472c.126.567.252,1.134.409,1.669h1.48l1.259-1.228,1.921-.614C138.3,188.215,138.155,187.208,138.06,186.2Z" transform="translate(-133.4 -186.2)"/>
            </g>
            <g id="Grupo_7418" data-name="Grupo 7418" transform="translate(1.828 5.441)">
              <path id="Caminho_7170" data-name="Caminho 7170" d="M90.357,86.363a25.323,25.323,0,0,1,.913-2.928L89.019,82.3l-1.055-1.4c-.016.016-.016.031-.031.047A23.828,23.828,0,0,0,86.5,83.86l1.873,1.858Z" transform="translate(-86.5 -80.9)"/>
            </g>
            <g id="Grupo_7419" data-name="Grupo 7419" transform="translate(7.055 0.435)">
              <path id="Caminho_7171" data-name="Caminho 7171" d="M121.6,51.981c.047-.079.094-.142.142-.22a17.681,17.681,0,0,1,2.2-2.661c-.724.142-1.448.3-2.141.5a9.861,9.861,0,0,0-2.11.85l.173.331Z" transform="translate(-119.7 -49.1)"/>
            </g>
            <g id="Grupo_7420" data-name="Grupo 7420" transform="translate(0.127 21.074)">
              <path id="Caminho_7172" data-name="Caminho 7172" d="M78.439,182.5,75.7,180.2a27.418,27.418,0,0,0,.6,3.464l2.739,1.9,2.692.394a28.243,28.243,0,0,1-.724-2.865Z" transform="translate(-75.7 -180.2)"/>
            </g>
            <g id="Grupo_7421" data-name="Grupo 7421" transform="translate(0.678 9.298)">
              <path id="Caminho_7173" data-name="Caminho 7173" d="M81.1,110.029l2.425.8a29.747,29.747,0,0,1,.472-2.96l-2.251-.74L80,105.4c-.063.189-.142.394-.2.6h0c-.236.693-.425,1.417-.6,2.141Z" transform="translate(-79.2 -105.4)"/>
            </g>
            <g id="Grupo_7422" data-name="Grupo 7422" transform="translate(3.827 2.245)">
              <path id="Caminho_7174" data-name="Caminho 7174" d="M102.3,65.5a24.18,24.18,0,0,1,1.559-3.054l-1.9-1.354L101.7,60.6a10.04,10.04,0,0,0-2.5,2.393l1.118,1.5Z" transform="translate(-99.2 -60.6)"/>
            </g>
            <g id="Grupo_7423" data-name="Grupo 7423" transform="translate(0.049 13.077)">
              <path id="Caminho_7175" data-name="Caminho 7175" d="M80,135.461c0-.2-.016-.394-.016-.6-.016-.976.016-1.952.094-2.9l-2.818-.929L75.609,129.4a25.937,25.937,0,0,0-.409,3.164l2.472,2.236Z" transform="translate(-75.2 -129.4)"/>
            </g>
            <g id="Grupo_7424" data-name="Grupo 7424" transform="translate(0 17.406)">
              <path id="Caminho_7176" data-name="Caminho 7176" d="M74.924,159.325l3.259,2.724,1.968.472c-.157-.96-.283-1.952-.346-2.944l-2.818-.787L74.908,156.9c-.016.409-.016.819,0,1.244A7.394,7.394,0,0,0,74.924,159.325Z" transform="translate(-74.891 -156.9)"/>
            </g>
          </g>
        </g>
      </g>
    </g>
  </g>
</svg>
